PathFileType	4	(X/Y/Z)	SUBJ24_0_static_RCNL2025.trc
DataRate	CameraRate	NumFrames	NumMarkers	Units	OrigDataRate	OrigDataStartFrame	OrigNumFrames
100	100	13	25	mm	100	31	92
Frame#	Time	R_Shoulder			L_Shoulder			C7			J_Notch			R_Elbow			L_Elbow			R_Wrist			L_Wrist			R_Asis			L_Asis			Sacral			Thoracic			Sternum			R_Thigh_Lateral			R_Knee_Lateral			R_Shank_Lateral			R_Ankle_Lateral			R_Heel			R_Toe			L_Thigh_Lateral			L_Knee_Lateral			L_Shank_Lateral			L_Ankle_Lateral			L_Heel			L_Toe		
		X1	Y1	Z1	X2	Y2	Z2	X3	Y3	Z3	X4	Y4	Z4	X5	Y5	Z5	X6	Y6	Z6	X7	Y7	Z7	X8	Y8	Z8	X9	Y9	Z9	X10	Y10	Z10	X11	Y11	Z11	X12	Y12	Z12	X13	Y13	Z13	X14	Y14	Z14	X15	Y15	Z15	X16	Y16	Z16	X17	Y17	Z17	X18	Y18	Z18	X19	Y19	Z19	X20	Y20	Z20	X21	Y21	Z21	X22	Y22	Z22	X23	Y23	Z23	X24	Y24	Z24	X25	Y25	Z25
31	0.30000000	-281.077881	1342.190918	-60.712521	-308.581390	1339.269165	-396.860229	-374.333923	1394.024536	-220.485657	-235.706589	1309.447876	-232.435730	-270.427948	1119.956909	110.381714	-331.944519	1106.630249	-560.401733	-201.998650	917.570404	206.522606	-270.080055	921.792023	-685.415070	-238.186234	889.341492	-65.512550	-245.050232	885.878235	-395.896484	-412.079529	931.659302	-221.509232	-422.578094	1122.044312	-223.761185	-157.760574	1092.841553	-241.133469	-349.933258	588.357056	-29.951273	-308.995605	447.407379	-103.468697	-337.581573	308.081970	-47.480885	-365.533264	70.957436	-110.502625	-410.868286	40.754704	-166.381363	-235.515732	42.755745	-118.859215	-320.879456	584.574890	-408.250122	-319.538635	452.121582	-353.563080	-351.539825	296.961517	-401.038116	-357.917908	68.475151	-329.794037	-399.117554	40.787720	-270.229553	-235.072769	46.758339	-312.345032
32	0.31000000	-281.181488	1342.252319	-60.678043	-308.730438	1339.329468	-396.805420	-374.497894	1394.108887	-220.419266	-235.729004	1309.461914	-232.431122	-270.455902	1119.962036	110.407196	-332.025330	1106.658936	-560.338440	-202.052269	917.556763	206.574295	-270.263412	921.842407	-685.410919	-238.179001	889.335571	-65.543976	-245.147476	885.958984	-395.774231	-412.152924	931.677917	-221.552582	-422.715576	1122.057373	-223.771866	-157.738968	1092.930176	-241.119293	-349.927917	588.372925	-29.951605	-308.998383	447.388306	-103.459457	-337.571655	308.076324	-47.458504	-365.450623	70.894814	-110.394516	-410.881653	40.685810	-166.347382	-235.540985	42.687523	-118.796150	-320.898682	584.552002	-408.179840	-319.560516	452.151154	-353.555634	-351.564026	296.932800	-401.035675	-357.916962	68.459320	-329.774384	-399.155182	40.692535	-270.306213	-235.049255	46.740574	-312.323547
33	0.32000000	-281.314606	1342.251221	-60.620312	-308.879669	1339.381104	-396.750244	-374.599976	1394.046753	-220.357605	-235.869919	1309.532471	-232.383789	-270.427216	1119.937134	110.397270	-332.211700	1106.664795	-560.368103	-202.069038	917.606934	206.563438	-270.430283	921.929230	-685.440216	-238.377457	889.317810	-65.507881	-245.164795	885.944885	-395.759460	-412.241791	931.622131	-221.499664	-422.799377	1121.991211	-223.725891	-157.818848	1092.986572	-241.189804	-349.939087	588.349792	-29.948343	-309.127625	447.439026	-103.359413	-337.679657	308.049438	-47.402302	-365.582855	70.883957	-110.487770	-410.865967	40.674091	-166.385773	-235.513977	42.755009	-118.802025	-320.956421	584.570984	-408.090790	-319.634521	452.174866	-353.607422	-351.619873	296.934937	-401.036713	-357.940002	68.445183	-329.766846	-399.126465	40.756844	-270.257202	-235.092911	46.761623	-312.342010
34	0.33000000	-281.395386	1342.216919	-60.629921	-309.009705	1339.446899	-396.710846	-374.734650	1394.009155	-220.387909	-236.019043	1309.556885	-232.403259	-270.480011	1120.001343	110.408051	-332.378632	1106.722656	-560.384033	-202.155167	917.613831	206.537994	-270.631958	922.012604	-685.482117	-238.430374	889.281006	-65.502350	-245.296463	885.938843	-395.763184	-412.319305	931.616821	-221.457611	-422.855591	1121.902832	-223.808807	-157.817337	1093.074341	-241.144699	-349.971527	588.288086	-29.946854	-309.143829	447.406403	-103.358109	-337.741302	308.097412	-47.340656	-365.643799	70.897369	-110.475525	-410.859558	40.599094	-166.380783	-235.571228	42.692684	-118.760597	-320.995911	584.419800	-407.962799	-319.632629	452.168427	-353.620453	-351.666107	296.920715	-401.013763	-357.947815	68.401123	-329.781738	-398.991852	41.098671	-270.091980	-235.052826	46.714809	-312.320923
35	0.34000000	-281.462158	1342.293701	-60.617184	-309.133270	1339.458496	-396.702637	-374.878204	1393.999756	-220.374863	-236.083496	1309.597168	-232.296967	-270.510651	1120.031982	110.453117	-332.532318	1106.781128	-560.384827	-202.173447	917.654449	206.567726	-270.717102	922.049408	-685.542786	-238.426025	889.308350	-65.460640	-245.335403	885.964417	-395.770386	-412.389679	931.616272	-221.510483	-422.905487	1121.906616	-223.791916	-157.914398	1093.056885	-241.201370	-350.341522	588.546570	-29.889368	-309.131744	447.364166	-103.374146	-337.712036	308.037628	-47.318943	-365.501526	70.793045	-110.397095	-410.857208	40.620613	-166.375427	-235.436493	42.810249	-118.972336	-321.068207	584.331848	-407.954834	-319.739685	452.120331	-353.578552	-351.667084	296.945679	-401.018494	-357.939941	68.390846	-329.790192	-399.106537	40.711235	-270.262268	-235.035812	46.707413	-312.330688
36	0.35000000	-281.614929	1342.376343	-60.559475	-309.304657	1339.478394	-396.694550	-374.987946	1393.972168	-220.320526	-236.171158	1309.653809	-232.369080	-270.560486	1120.052979	110.473946	-332.703430	1106.866577	-560.358459	-202.145607	917.672638	206.609802	-270.904404	922.138641	-685.589996	-238.566040	889.293396	-65.370247	-245.465485	885.948608	-395.777679	-412.475983	931.573425	-221.458847	-423.021545	1121.859497	-223.699448	-158.002914	1093.195435	-241.284058	-350.415924	588.573669	-29.848913	-309.126526	447.386810	-103.328423	-337.697510	308.022461	-47.358120	-365.557220	70.866096	-110.420273	-410.845093	40.621929	-166.372681	-235.554794	42.704361	-118.786377	-321.131714	584.530212	-408.142212	-319.741669	452.109283	-353.545990	-351.705933	296.828186	-401.038605	-357.922150	68.399307	-329.800140	-398.999115	41.035927	-270.153717	-235.031860	46.701279	-312.329895
37	0.36000000	-281.704376	1342.380249	-60.566692	-309.452026	1339.576538	-396.729492	-375.155029	1394.030518	-220.305679	-236.349243	1309.684204	-232.385086	-270.619049	1120.114868	110.524124	-332.804016	1106.930664	-560.412598	-202.141693	917.732452	206.654442	-271.112984	922.213501	-685.623566	-238.615585	889.314514	-65.333740	-245.569702	885.957764	-395.702362	-412.532532	931.616577	-221.395508	-423.171265	1121.935425	-223.688934	-158.057404	1093.278809	-241.229736	-350.460876	588.515137	-29.843235	-309.142517	447.440186	-103.324417	-337.740479	308.039520	-47.331757	-365.506897	70.809319	-110.390694	-410.860046	40.606770	-166.374634	-235.545547	42.694820	-118.781837	-321.158264	584.576660	-408.156921	-319.822357	452.160522	-353.627167	-351.737946	296.840302	-400.968536	-357.944031	68.372299	-329.771210	-398.984589	41.087429	-270.114563	-235.087769	46.724693	-312.329803
38	0.37000000	-281.728760	1342.463135	-60.586845	-309.614319	1339.665894	-396.694458	-375.320374	1394.012817	-220.278854	-236.501953	1309.685913	-232.405426	-270.806427	1120.246704	110.554230	-332.980164	1107.012939	-560.456543	-202.144653	917.872864	206.668411	-271.297691	922.309235	-685.696411	-238.721207	889.336731	-65.386963	-245.698746	885.988586	-395.688080	-412.673492	931.644531	-221.411575	-423.245331	1121.976807	-223.641754	-158.154129	1093.315430	-241.227493	-350.457764	588.483765	-29.800982	-309.278870	447.331207	-103.395157	-337.728485	308.152313	-47.239971	-365.477142	70.801559	-110.250664	-410.862671	40.679485	-166.357986	-235.546768	42.694511	-118.790901	-321.304321	584.350342	-407.945892	-319.885681	452.222839	-353.565308	-351.802063	296.809357	-401.022430	-357.947540	68.383720	-329.746460	-399.002899	41.104088	-270.096985	-235.053024	46.713932	-312.319977
39	0.38000000	-281.745087	1342.524048	-60.588051	-309.765747	1339.728760	-396.688538	-375.482483	1394.054199	-220.280457	-236.528458	1309.789185	-232.353333	-270.827698	1120.269775	110.559845	-333.157135	1107.086548	-560.425354	-202.103287	917.908417	206.718079	-271.442642	922.441925	-685.777710	-238.794418	889.388611	-65.354591	-245.715118	886.044434	-395.691895	-412.679626	931.612976	-221.428146	-423.449341	1121.949097	-223.595078	-158.143494	1093.408447	-241.263885	-350.505066	588.537354	-29.785952	-309.284821	447.416077	-103.236153	-337.696411	308.074249	-47.317142	-365.491058	70.858505	-110.307304	-410.883606	40.647007	-166.347443	-235.550064	42.706402	-118.803558	-321.278656	584.250549	-407.923920	-319.975342	452.301239	-353.563507	-351.769012	296.847107	-401.037811	-357.950043	68.384727	-329.756592	-399.118469	40.759151	-270.222137	-235.038071	46.720654	-312.315521
40	0.39000000	-281.834106	1342.642822	-60.619049	-309.836884	1339.805420	-396.671936	-375.569611	1394.067261	-220.217361	-236.636581	1309.859863	-232.378159	-270.837952	1120.318848	110.665672	-333.245209	1107.154053	-560.489746	-202.069939	918.026520	206.762230	-271.617928	922.489441	-685.803558	-238.802963	889.392151	-65.359421	-245.839523	886.075928	-395.669678	-412.837677	931.638062	-221.393448	-423.561859	1122.001343	-223.522461	-158.208069	1093.481567	-241.386993	-350.589325	588.558716	-29.731949	-309.356537	447.420959	-103.277138	-337.680206	308.073151	-47.329849	-365.522369	70.874939	-110.277367	-410.882446	40.640263	-166.347763	-235.404770	42.827221	-119.005028	-321.301025	584.442017	-407.906891	-319.913330	452.223602	-353.563995	-351.860352	296.866150	-401.030365	-357.943787	68.406372	-329.759430	-399.158081	40.676247	-270.305878	-235.079422	46.735001	-312.335602
41	0.40000000	-281.684296	1342.810303	-60.646240	-309.987091	1339.826050	-396.742828	-375.701141	1394.089722	-220.227051	-236.765717	1309.860840	-232.399048	-270.822601	1120.428101	110.655754	-333.369080	1107.222534	-560.559265	-201.915398	918.187500	206.749947	-271.834602	922.567444	-685.954437	-238.987152	889.435669	-65.315163	-245.867737	886.090332	-395.663116	-412.857330	931.629333	-221.385681	-423.694885	1122.029663	-223.536392	-158.257187	1093.544556	-241.288452	-350.649658	588.558044	-29.805780	-309.378906	447.440979	-103.297585	-337.743195	308.077576	-47.302849	-365.514740	70.855461	-110.372360	-410.880493	40.677139	-166.348907	-235.484695	42.759987	-118.828217	-321.414551	584.525757	-408.186340	-319.906219	452.187622	-353.602173	-351.834808	296.871704	-401.004272	-357.911865	68.431976	-329.791809	-398.991730	41.150101	-270.072754	-235.032349	46.739769	-312.324341
42	0.41000000	-281.778381	1342.874878	-60.634186	-310.139893	1339.861450	-396.700867	-375.869293	1394.061768	-220.230682	-236.904694	1309.948853	-232.478546	-270.911865	1120.484619	110.721588	-333.472107	1107.320557	-560.558960	-201.954308	918.277649	206.801071	-271.998611	922.696655	-686.023010	-239.036667	889.450928	-65.286217	-246.001801	886.097107	-395.670959	-412.969116	931.546753	-221.418365	-423.739502	1121.991699	-223.534424	-158.222580	1093.639404	-241.265030	-350.679932	588.494141	-29.787533	-309.291718	447.427032	-103.235939	-337.804565	308.039612	-47.270134	-365.527954	70.893494	-110.337608	-410.954010	40.700241	-166.317902	-235.466125	42.760262	-118.820183	-321.453796	584.621948	-408.107635	-320.030731	452.219513	-353.526917	-351.833557	296.971649	-401.013641	-357.929535	68.445129	-329.762238	-398.963989	41.182522	-270.044861	-235.072632	46.759300	-312.345337
43	0.42000000	-281.747833	1342.931641	-60.658806	-310.236572	1339.886841	-396.724396	-376.017487	1394.060791	-220.242783	-236.987656	1309.981934	-232.340729	-270.893341	1120.578979	110.688759	-333.624573	1107.319824	-560.588745	-201.944695	918.363464	206.923340	-272.131432	922.778564	-686.093536	-239.082260	889.412109	-65.407005	-246.039536	886.124268	-395.685516	-412.981110	931.531921	-221.450043	-423.806335	1121.908203	-223.572739	-158.300125	1093.712402	-241.371323	-350.637146	588.440491	-29.759905	-309.355499	447.434601	-103.297165	-337.837097	308.044739	-47.263340	-365.513306	70.862732	-110.354996	-410.895721	40.667786	-166.343933	-235.505508	42.759155	-118.806908	-321.476807	584.391235	-408.111237	-319.908356	452.151245	-353.526093	-351.834167	296.882629	-400.988129	-357.941193	68.423653	-329.749695	-399.110229	40.700191	-270.270874	-235.046921	46.732491	-312.316620
